<svg width="512" height="512" viewBox="0 0 512 512" fill="none" xmlns="http://www.w3.org/2000/svg">
<path d="M448 341.371V170.611C447.993 165.022 446.523 159.532 443.735 154.688C440.947 149.844 436.939 145.815 432.11 143.001L280.11 54.541C272.787 50.2774 264.464 48.0312 255.99 48.0312C247.516 48.0312 239.193 50.2774 231.87 54.541L79.89 143.001C75.0609 145.815 71.053 149.844 68.2652 154.688C65.4773 159.532 64.0068 165.022 64 170.611V341.371C64.0033 346.963 65.4722 352.457 68.2602 357.305C71.0482 362.153 75.058 366.186 79.89 369.001L231.89 457.461C239.215 461.719 247.537 463.961 256.01 463.961C264.483 463.961 272.805 461.719 280.13 457.461L432.13 369.001C436.958 366.183 440.964 362.149 443.748 357.302C446.533 352.454 447.999 346.961 448 341.371Z" stroke="white" stroke-width="32" stroke-linecap="round" stroke-linejoin="round"/>
<path d="M69 153.99L256 263.99L443 153.99" stroke="white" stroke-width="32" stroke-linecap="round" stroke-linejoin="round"/>
<path d="M256 463.99V263.99" stroke="white" stroke-width="32" stroke-linecap="round" stroke-linejoin="round"/>
<path d="M256 170.5C263.052 170.5 269.55 168.599 274.357 165.394C279.147 162.2 282.5 157.514 282.5 152C282.5 146.486 279.147 141.8 274.357 138.606C269.55 135.401 263.052 133.5 256 133.5C248.948 133.5 242.45 135.401 237.643 138.606C232.853 141.8 229.5 146.486 229.5 152C229.5 157.514 232.853 162.2 237.643 165.394C242.45 168.599 248.948 170.5 256 170.5Z" fill="white" stroke="white" stroke-width="5"/>
<path d="M208 322.5C213.514 322.5 218.2 319.147 221.394 314.357C224.599 309.55 226.5 303.052 226.5 296C226.5 288.948 224.599 282.45 221.394 277.643C218.2 272.853 213.514 269.5 208 269.5C202.486 269.5 197.8 272.853 194.606 277.643C191.401 282.45 189.5 288.948 189.5 296C189.5 303.052 191.401 309.55 194.606 314.357C197.8 319.147 202.486 322.5 208 322.5Z" fill="white" stroke="white" stroke-width="5"/>
<path d="M112 354.5C117.514 354.5 122.2 351.147 125.394 346.357C128.599 341.55 130.5 335.052 130.5 328C130.5 320.948 128.599 314.45 125.394 309.643C122.2 304.853 117.514 301.5 112 301.5C106.486 301.5 101.8 304.853 98.6062 309.643C95.4011 314.45 93.5 320.948 93.5 328C93.5 335.052 95.4011 341.55 98.6062 346.357C101.8 351.147 106.486 354.5 112 354.5Z" fill="white" stroke="white" stroke-width="5"/>
<path d="M304 322.5C309.514 322.5 314.2 319.147 317.394 314.357C320.599 309.55 322.5 303.052 322.5 296C322.5 288.948 320.599 282.45 317.394 277.643C314.2 272.853 309.514 269.5 304 269.5C298.486 269.5 293.8 272.853 290.606 277.643C287.401 282.45 285.5 288.948 285.5 296C285.5 303.052 287.401 309.55 290.606 314.357C293.8 319.147 298.486 322.5 304 322.5Z" fill="white" stroke="white" stroke-width="5"/>
<path d="M400 266.5C405.514 266.5 410.2 263.147 413.394 258.357C416.599 253.55 418.5 247.052 418.5 240C418.5 232.948 416.599 226.45 413.394 221.643C410.2 216.853 405.514 213.5 400 213.5C394.486 213.5 389.8 216.853 386.606 221.643C383.401 226.45 381.5 232.948 381.5 240C381.5 247.052 383.401 253.55 386.606 258.357C389.8 263.147 394.486 266.5 400 266.5Z" fill="white" stroke="white" stroke-width="5"/>
<path d="M304 410.5C309.514 410.5 314.2 407.147 317.394 402.357C320.599 397.55 322.5 391.052 322.5 384C322.5 376.948 320.599 370.45 317.394 365.643C314.2 360.853 309.514 357.5 304 357.5C298.486 357.5 293.8 360.853 290.606 365.643C287.401 370.45 285.5 376.948 285.5 384C285.5 391.052 287.401 397.55 290.606 402.357C293.8 407.147 298.486 410.5 304 410.5Z" fill="white" stroke="white" stroke-width="5"/>
<path d="M400 354.5C405.514 354.5 410.2 351.147 413.394 346.357C416.599 341.55 418.5 335.052 418.5 328C418.5 320.948 416.599 314.45 413.394 309.643C410.2 304.853 405.514 301.5 400 301.5C394.486 301.5 389.8 304.853 386.606 309.643C383.401 314.45 381.5 320.948 381.5 328C381.5 335.052 383.401 341.55 386.606 346.357C389.8 351.147 394.486 354.5 400 354.5Z" fill="white" stroke="white" stroke-width="5"/>
</svg>
