<svg width="24" height="24" viewBox="0 0 24 24" fill="none" xmlns="http://www.w3.org/2000/svg">
<path d="M11.9999 2C6.48592 2 2 6.48596 2 12C2 17.514 6.48592 22 11.9999 22C13.4055 22 14.7652 21.7139 16.041 21.1497C16.3865 20.997 16.5426 20.5931 16.3899 20.2477C16.2371 19.9022 15.8331 19.7462 15.4878 19.8988C14.3873 20.3855 13.2138 20.6323 11.9999 20.6323C7.2401 20.6323 3.36772 16.7599 3.36772 12C3.36772 7.24013 7.2401 3.36771 11.9999 3.36771C16.7598 3.36771 20.6323 7.24013 20.6323 12C20.6323 12.902 20.4938 13.7906 20.221 14.6412C19.6331 16.4725 18.6672 17.0376 18.1972 16.9645C17.7464 16.8939 17.7114 16.2198 17.7114 16.0149V7.8929C17.7114 7.51522 17.4052 7.20904 17.0275 7.20904C16.6499 7.20904 16.3437 7.51522 16.3437 7.8929V8.29531C15.2953 7.06773 13.737 6.28845 11.9999 6.28845C8.85058 6.28845 6.28835 8.85066 6.28835 12C6.28835 15.1493 8.85058 17.7116 11.9999 17.7116C13.737 17.7116 15.2953 16.9323 16.3437 15.7047V16.0149C16.3437 17.2565 16.9882 18.1596 17.9857 18.3158C19.1662 18.5002 20.7188 17.5656 21.5232 15.0591C21.8396 14.0733 22 13.0441 22 12C21.9999 6.48596 17.514 2 11.9999 2ZM11.9999 16.3438C9.60469 16.3438 7.65601 14.3952 7.65601 12C7.65601 9.60483 9.60469 7.65616 11.9999 7.65616C14.395 7.65616 16.3436 9.60483 16.3436 12C16.3436 14.3952 14.395 16.3438 11.9999 16.3438Z" fill="white"/>
</svg>
