<svg width="24" height="24" viewBox="0 0 24 24" fill="none" xmlns="http://www.w3.org/2000/svg">
<path fill-rule="evenodd" clip-rule="evenodd" d="M14.07 3H9.93C8.88375 3 8.05125 3 7.3875 3.05625C6.69 3.1125 6.09375 3.225 5.55375 3.50625C4.6715 3.95451 3.95451 4.6715 3.50625 5.55375C3.23613 6.12911 3.08316 6.75246 3.05625 7.3875C3 8.0625 3 8.88375 3 9.93V14.07C3 15.1163 3 15.9488 3.05625 16.6125C3.1125 17.31 3.225 17.9062 3.50625 18.4462C3.95625 19.3237 4.67625 20.0437 5.55375 20.4937C6.09375 20.775 6.69 20.8875 7.3875 20.9438C8.0625 21 8.88375 21 9.93 21H14.07C15.1163 21 15.9488 21 16.6125 20.9438C17.2475 20.9168 17.8709 20.7639 18.4462 20.4937C19.3285 20.0455 20.0455 19.3285 20.4937 18.4462C20.775 17.9062 20.8875 17.31 20.9438 16.6125C21 15.9375 21 15.1163 21 14.07V9.93C21 8.88375 21 8.05125 20.9438 7.3875C20.9168 6.75246 20.7639 6.12911 20.4937 5.55375C20.0455 4.6715 19.3285 3.95451 18.4462 3.50625C17.8709 3.23613 17.2475 3.08316 16.6125 3.05625C15.9375 3 15.1163 3 14.07 3ZM6.3075 5.01375C6.58875 4.87875 6.9375 4.78875 7.5225 4.7325C8.11875 4.6875 8.8725 4.6875 9.96375 4.6875H14.0363C15.1163 4.6875 15.8812 4.6875 16.4775 4.7325C17.0625 4.78875 17.4113 4.87875 17.6812 5.01375C18.2437 5.295 18.6937 5.75625 18.9862 6.31875C19.1213 6.58875 19.2112 6.9375 19.2675 7.5225L19.29 8.0625H4.71L4.7325 7.5225C4.78875 6.9375 4.87875 6.58875 5.01375 6.31875C5.295 5.75625 5.75625 5.30625 6.31875 5.01375H6.3075ZM4.6875 9.75V14.0363C4.6875 15.1163 4.6875 15.8812 4.7325 16.4775C4.78875 17.0625 4.87875 17.4113 5.01375 17.6812C5.295 18.2437 5.75625 18.6937 6.31875 18.9862C6.58875 19.1213 6.9375 19.2112 7.5225 19.2675C8.11875 19.3125 8.8725 19.3125 9.96375 19.3125H14.0363C15.1163 19.3125 15.8812 19.3125 16.4775 19.2675C16.8934 19.2542 17.3025 19.1586 17.6812 18.9862C18.2437 18.705 18.6937 18.2437 18.9862 17.6812C19.1213 17.4113 19.2112 17.0625 19.2675 16.4775C19.3125 15.8812 19.3125 15.1275 19.3125 14.0363V9.75H4.6875Z" fill="white"/>
</svg>
